<svg width="1465" height="512" viewBox="0 0 1465 512" fill="none" xmlns="http://www.w3.org/2000/svg">
<path d="M1349.74 405.896C1328 405.896 1308.46 401.08 1291.12 391.447C1273.78 381.814 1260.02 368.603 1249.83 351.814C1239.93 335.025 1234.97 316.172 1234.97 295.255C1234.97 274.063 1239.93 255.21 1249.83 238.696C1260.02 221.907 1273.78 208.696 1291.12 199.063C1308.46 189.155 1328 184.201 1349.74 184.201C1371.48 184.201 1390.89 189.155 1407.95 199.063C1425.29 208.696 1438.92 221.907 1448.82 238.696C1459.01 255.21 1464.1 274.063 1464.1 295.255C1464.1 316.172 1459.01 335.025 1448.82 351.814C1438.92 368.603 1425.29 381.814 1407.95 391.447C1390.61 401.08 1371.21 405.896 1349.74 405.896ZM1349.74 350.163C1359.93 350.163 1368.73 347.686 1376.16 342.732C1383.59 337.778 1389.37 331.172 1393.5 322.915C1397.63 314.659 1399.7 305.301 1399.7 294.842C1399.7 284.659 1397.63 275.439 1393.5 267.182C1389.37 258.925 1383.59 252.32 1376.16 247.366C1368.73 242.412 1359.93 239.935 1349.74 239.935C1339.56 239.935 1330.61 242.412 1322.91 247.366C1315.48 252.32 1309.7 258.925 1305.57 267.182C1301.44 275.439 1299.38 284.659 1299.38 294.842C1299.38 305.301 1301.44 314.659 1305.57 322.915C1309.7 331.172 1315.48 337.778 1322.91 342.732C1330.61 347.686 1339.56 350.163 1349.74 350.163Z" fill="black"/>
<path d="M1177.57 400.942C1155.55 400.942 1136.01 396.401 1118.95 387.318C1101.88 377.961 1088.4 365.438 1078.49 349.75C1068.58 333.787 1063.63 315.622 1063.63 295.255C1063.63 274.888 1068.58 256.861 1078.49 241.173C1088.4 225.21 1101.88 212.55 1118.95 203.192C1136.01 193.834 1155.55 189.155 1177.57 189.155H1209.36V243.237H1180.05C1169.31 243.237 1160.09 245.577 1152.39 250.256C1144.68 254.659 1138.63 260.852 1134.22 268.833C1130.09 276.54 1128.03 285.347 1128.03 295.255C1128.03 305.163 1130.09 314.108 1134.22 322.09C1138.63 329.796 1144.68 335.989 1152.39 340.668C1160.09 345.071 1169.31 347.273 1180.05 347.273H1209.36V400.942H1177.57Z" fill="black"/>
<path d="M921.101 400.942V251.494C921.101 232.228 926.606 217.091 937.615 206.082C948.624 195.073 963.899 189.568 983.44 189.568H1044.95V241.586H999.128C995.275 241.586 991.972 242.962 989.22 245.714C986.468 248.191 985.092 251.494 985.092 255.622V400.942H921.101Z" fill="black"/>
<path d="M592 400.942L685.715 145.394C690.394 132.734 698.1 123.238 708.834 116.908C719.568 110.303 731.678 107 745.164 107C758.65 107 770.76 110.165 781.494 116.495C792.227 122.55 799.934 132.046 804.613 144.981L898.74 400.942H824.016L805.851 345.209H683.238L664.247 400.942H592ZM700.99 287.824H788.099L751.356 172.642C750.806 170.99 749.98 169.889 748.879 169.339C748.054 168.513 746.953 168.1 745.576 168.1C744.2 168.1 742.962 168.513 741.861 169.339C741.035 170.165 740.485 171.265 740.21 172.642L700.99 287.824Z" fill="black"/>
<rect width="512" height="512" rx="70" fill="black"/>
<path d="M63 440L180.624 120.067C186.497 104.217 196.17 92.3296 209.642 84.4045C223.114 76.1348 238.314 72 255.241 72C272.168 72 287.367 75.9625 300.84 83.8876C314.312 91.4681 323.985 103.356 329.857 119.551L448 440H354.211L331.412 370.225H177.515L153.68 440H63ZM199.797 298.382H309.131L263.013 154.18C262.323 152.112 261.286 150.734 259.904 150.045C258.868 149.011 257.486 148.494 255.759 148.494C254.032 148.494 252.477 149.011 251.096 150.045C250.059 151.079 249.368 152.457 249.023 154.18L199.797 298.382Z" fill="white"/>
</svg>
